<svg width="215" height="54" viewBox="0 0 215 54" fill="none" xmlns="http://www.w3.org/2000/svg">
<path d="M51.1351 0H22.73L36.7464 47.7206H64.7695L51.1351 0Z" fill="#747474"/>
<g filter="url(#filter0_di_1_702)">
<path d="M39.4558 46V21.102H48.7925C50.7052 21.102 52.31 21.4586 53.6068 22.1718C54.9116 22.8851 55.8964 23.8658 56.561 25.1139C57.2337 26.3539 57.57 27.7642 57.57 29.3446C57.57 30.9413 57.2337 32.3596 56.561 33.5996C55.8883 34.8397 54.8954 35.8163 53.5824 36.5295C52.2695 37.2346 50.6526 37.5872 48.7317 37.5872H42.5437V33.8793H48.1239C49.2423 33.8793 50.1582 33.6847 50.8714 33.2957C51.5846 32.9067 52.1114 32.3718 52.4518 31.691C52.8003 31.0101 52.9746 30.228 52.9746 29.3446C52.9746 28.4612 52.8003 27.6831 52.4518 27.0104C52.1114 26.3377 51.5806 25.815 50.8592 25.4421C50.146 25.0612 49.2261 24.8708 48.0995 24.8708H43.9661V46H39.4558ZM61.2932 46V27.3265H65.5604V30.4388H65.7549C66.0953 29.3608 66.6788 28.5301 67.5055 27.9465C68.3403 27.3549 69.2926 27.059 70.3625 27.059C70.6056 27.059 70.8771 27.0712 71.177 27.0955C71.485 27.1117 71.7403 27.1401 71.9429 27.1806V31.229C71.7565 31.1641 71.4607 31.1074 71.0554 31.0588C70.6583 31.002 70.2733 30.9737 69.9005 30.9737C69.0981 30.9737 68.3768 31.1479 67.7365 31.4964C67.1043 31.8368 66.6059 32.311 66.2412 32.9188C65.8764 33.5267 65.6941 34.2278 65.6941 35.022V46H61.2932ZM82.2431 46.3647C80.4195 46.3647 78.8391 45.9635 77.5018 45.1612C76.1645 44.3588 75.1271 43.2363 74.3895 41.7936C73.6601 40.3509 73.2954 38.6651 73.2954 36.7362C73.2954 34.8073 73.6601 33.1174 74.3895 31.6666C75.1271 30.2159 76.1645 29.0893 77.5018 28.2869C78.8391 27.4846 80.4195 27.0834 82.2431 27.0834C84.0667 27.0834 85.6471 27.4846 86.9844 28.2869C88.3217 29.0893 89.3551 30.2159 90.0845 31.6666C90.822 33.1174 91.1908 34.8073 91.1908 36.7362C91.1908 38.6651 90.822 40.3509 90.0845 41.7936C89.3551 43.2363 88.3217 44.3588 86.9844 45.1612C85.6471 45.9635 84.0667 46.3647 82.2431 46.3647ZM82.2674 42.8391C83.2562 42.8391 84.0829 42.5676 84.7475 42.0246C85.4121 41.4735 85.9065 40.7359 86.2307 39.812C86.563 38.888 86.7291 37.8587 86.7291 36.724C86.7291 35.5813 86.563 34.5479 86.2307 33.6239C85.9065 32.6919 85.4121 31.9503 84.7475 31.3992C84.0829 30.8481 83.2562 30.5725 82.2674 30.5725C81.2543 30.5725 80.4114 30.8481 79.7387 31.3992C79.0741 31.9503 78.5757 32.6919 78.2434 33.6239C77.9192 34.5479 77.7571 35.5813 77.7571 36.724C77.7571 37.8587 77.9192 38.888 78.2434 39.812C78.5757 40.7359 79.0741 41.4735 79.7387 42.0246C80.4114 42.5676 81.2543 42.8391 82.2674 42.8391ZM104.384 27.3265V30.7305H93.3457V27.3265H104.384ZM96.1054 46V25.5637C96.1054 24.3075 96.3647 23.2619 96.8834 22.4271C97.4102 21.5924 98.1154 20.9683 98.9988 20.5549C99.8822 20.1416 100.863 19.9349 101.941 19.9349C102.703 19.9349 103.379 19.9957 103.971 20.1173C104.563 20.2388 105 20.3483 105.284 20.4455L104.409 23.8495C104.222 23.7928 103.987 23.7361 103.704 23.6793C103.42 23.6145 103.104 23.5821 102.755 23.5821C101.937 23.5821 101.357 23.7807 101.017 24.1778C100.685 24.5668 100.518 25.1261 100.518 25.8555V46H96.1054ZM107.831 46V27.3265H112.232V46H107.831ZM110.044 24.6762C109.347 24.6762 108.747 24.4452 108.244 23.9833C107.742 23.5132 107.491 22.9499 107.491 22.2934C107.491 21.6288 107.742 21.0655 108.244 20.6036C108.747 20.1335 109.347 19.8984 110.044 19.8984C110.749 19.8984 111.348 20.1335 111.843 20.6036C112.345 21.0655 112.597 21.6288 112.597 22.2934C112.597 22.9499 112.345 23.5132 111.843 23.9833C111.348 24.4452 110.749 24.6762 110.044 24.6762ZM138.975 27.9465C138.861 26.8848 138.383 26.0581 137.54 25.4665C136.705 24.8748 135.619 24.579 134.282 24.579C133.342 24.579 132.535 24.7208 131.863 25.0045C131.19 25.2881 130.675 25.6731 130.319 26.1594C129.962 26.6457 129.78 27.2009 129.772 27.825C129.772 28.3437 129.889 28.7935 130.124 29.1744C130.367 29.5553 130.696 29.8795 131.109 30.147C131.522 30.4063 131.98 30.6252 132.483 30.8035C132.985 30.9818 133.492 31.1317 134.002 31.2533L136.337 31.8368C137.277 32.0557 138.18 32.3515 139.048 32.7243C139.923 33.0971 140.705 33.5672 141.394 34.1346C142.091 34.7019 142.642 35.3867 143.047 36.1891C143.453 36.9915 143.655 37.9317 143.655 39.0096C143.655 40.4685 143.282 41.7531 142.537 42.8634C141.791 43.9657 140.713 44.8289 139.303 45.4529C137.901 46.0689 136.203 46.3769 134.209 46.3769C132.272 46.3769 130.59 46.077 129.164 45.4772C127.746 44.8775 126.635 44.0022 125.833 42.8513C125.039 41.7004 124.609 40.2983 124.544 38.6449H128.982C129.046 39.5121 129.314 40.2334 129.784 40.8089C130.254 41.3843 130.866 41.8139 131.62 42.0975C132.382 42.3812 133.233 42.523 134.173 42.523C135.153 42.523 136.012 42.3771 136.75 42.0854C137.496 41.7855 138.079 41.3722 138.501 40.8453C138.922 40.3104 139.137 39.6863 139.145 38.9731C139.137 38.3247 138.946 37.7898 138.574 37.3684C138.201 36.9388 137.678 36.5822 137.005 36.2985C136.341 36.0068 135.563 35.7474 134.671 35.5205L131.838 34.791C129.788 34.2642 128.167 33.4659 126.976 32.3961C125.792 31.3181 125.201 29.8876 125.201 28.1046C125.201 26.6376 125.598 25.353 126.392 24.2507C127.194 23.1485 128.285 22.2934 129.662 21.6856C131.04 21.0696 132.6 20.7616 134.343 20.7616C136.11 20.7616 137.658 21.0696 138.987 21.6856C140.324 22.2934 141.374 23.1404 142.136 24.2264C142.897 25.3044 143.291 26.5444 143.315 27.9465H138.975ZM155.627 46.3647C153.804 46.3647 152.223 45.9635 150.886 45.1612C149.549 44.3588 148.511 43.2363 147.774 41.7936C147.044 40.3509 146.679 38.6651 146.679 36.7362C146.679 34.8073 147.044 33.1174 147.774 31.6666C148.511 30.2159 149.549 29.0893 150.886 28.2869C152.223 27.4846 153.804 27.0834 155.627 27.0834C157.451 27.0834 159.031 27.4846 160.368 28.2869C161.706 29.0893 162.739 30.2159 163.469 31.6666C164.206 33.1174 164.575 34.8073 164.575 36.7362C164.575 38.6651 164.206 40.3509 163.469 41.7936C162.739 43.2363 161.706 44.3588 160.368 45.1612C159.031 45.9635 157.451 46.3647 155.627 46.3647ZM155.651 42.8391C156.64 42.8391 157.467 42.5676 158.132 42.0246C158.796 41.4735 159.29 40.7359 159.615 39.812C159.947 38.888 160.113 37.8587 160.113 36.724C160.113 35.5813 159.947 34.5479 159.615 33.6239C159.29 32.6919 158.796 31.9503 158.132 31.3992C157.467 30.8481 156.64 30.5725 155.651 30.5725C154.638 30.5725 153.795 30.8481 153.123 31.3992C152.458 31.9503 151.96 32.6919 151.627 33.6239C151.303 34.5479 151.141 35.5813 151.141 36.724C151.141 37.8587 151.303 38.888 151.627 39.812C151.96 40.7359 152.458 41.4735 153.123 42.0246C153.795 42.5676 154.638 42.8391 155.651 42.8391ZM172.711 21.102V46H168.31V21.102H172.711ZM182.61 46.3769C181.427 46.3769 180.361 46.1661 179.413 45.7447C178.473 45.3151 177.727 44.683 177.176 43.8482C176.633 43.0134 176.361 41.9841 176.361 40.7602C176.361 39.7066 176.556 38.8353 176.945 38.1464C177.334 37.4575 177.865 36.9064 178.537 36.4931C179.21 36.0797 179.968 35.7677 180.811 35.5569C181.662 35.3381 182.541 35.1801 183.449 35.0828C184.543 34.9693 185.431 34.868 186.111 34.7789C186.792 34.6816 187.287 34.5357 187.595 34.3412C187.911 34.1386 188.069 33.8266 188.069 33.4051V33.3322C188.069 32.4163 187.797 31.7072 187.254 31.2047C186.711 30.7022 185.929 30.4509 184.908 30.4509C183.83 30.4509 182.975 30.686 182.343 31.156C181.719 31.6261 181.297 32.1813 181.078 32.8216L176.969 32.238C177.293 31.1034 177.828 30.1551 178.574 29.3932C179.32 28.6233 180.231 28.0478 181.309 27.6669C182.387 27.2779 183.579 27.0834 184.883 27.0834C185.783 27.0834 186.679 27.1887 187.57 27.3995C188.462 27.6102 189.276 27.9587 190.014 28.445C190.751 28.9232 191.343 29.5756 191.789 30.4023C192.243 31.229 192.47 32.2623 192.47 33.5024V46H188.239V43.4348H188.093C187.826 43.9535 187.449 44.4398 186.962 44.8937C186.484 45.3395 185.88 45.7001 185.151 45.9757C184.43 46.2431 183.583 46.3769 182.61 46.3769ZM183.753 43.1431C184.636 43.1431 185.402 42.9688 186.051 42.6203C186.699 42.2637 187.197 41.7936 187.546 41.2101C187.903 40.6265 188.081 39.9903 188.081 39.3014V37.1009C187.943 37.2144 187.708 37.3197 187.376 37.417C187.052 37.5143 186.687 37.5994 186.282 37.6723C185.876 37.7452 185.475 37.8101 185.078 37.8668C184.681 37.9236 184.336 37.9722 184.045 38.0127C183.388 38.1019 182.801 38.2477 182.282 38.4504C181.763 38.653 181.354 38.9367 181.054 39.3014C180.754 39.658 180.604 40.12 180.604 40.6873C180.604 41.4978 180.9 42.1097 181.492 42.523C182.083 42.9364 182.837 43.1431 183.753 43.1431ZM196.895 46V27.3265H201.162V30.4388H201.357C201.697 29.3608 202.28 28.5301 203.107 27.9465C203.942 27.3549 204.894 27.059 205.964 27.059C206.207 27.059 206.479 27.0712 206.779 27.0955C207.087 27.1117 207.342 27.1401 207.545 27.1806V31.229C207.358 31.1641 207.062 31.1074 206.657 31.0588C206.26 31.002 205.875 30.9737 205.502 30.9737C204.7 30.9737 203.978 31.1479 203.338 31.4964C202.706 31.8368 202.208 32.311 201.843 32.9188C201.478 33.5267 201.296 34.2278 201.296 35.022V46H196.895Z" fill="#09A855"/>
</g>
<path d="M17.0039 0H51L33.9961 52H0L17.0039 0Z" fill="#FDFDFD"/>
<path d="M26.875 0H28L11.125 52H10L26.875 0Z" fill="#1F1F1F"/>
<path d="M38.875 0H40L23.125 52H22L38.875 0Z" fill="#1F1F1F"/>
<path d="M45.6826 16.6394L45.3653 17.6735L11.2675 17.6735L11.6174 16.6311L45.6826 16.6394Z" fill="#1F1F1F"/>
<path d="M39.5456 35.3597L39.2013 36.3958L5.12925 36.3958L5.46527 35.3563L39.5456 35.3597Z" fill="#1F1F1F"/>
<defs>
<filter id="filter0_di_1_702" x="39.4557" y="18.1867" width="174.936" height="33.3255" filterUnits="userSpaceOnUse" color-interpolation-filters="sRGB">
<feFlood flood-opacity="0" result="BackgroundImageFix"/>
<feColorMatrix in="SourceAlpha" type="matrix" values="0 0 0 0 0 0 0 0 0 0 0 0 0 0 0 0 0 0 127 0" result="hardAlpha"/>
<feOffset dx="3.42347" dy="1.71174"/>
<feGaussianBlur stdDeviation="1.71174"/>
<feComposite in2="hardAlpha" operator="out"/>
<feColorMatrix type="matrix" values="0 0 0 0 0 0 0 0 0 0 0 0 0 0 0 0 0 0 0.15 0"/>
<feBlend mode="normal" in2="BackgroundImageFix" result="effect1_dropShadow_1_702"/>
<feBlend mode="normal" in="SourceGraphic" in2="effect1_dropShadow_1_702" result="shape"/>
<feColorMatrix in="SourceAlpha" type="matrix" values="0 0 0 0 0 0 0 0 0 0 0 0 0 0 0 0 0 0 127 0" result="hardAlpha"/>
<feOffset/>
<feGaussianBlur stdDeviation="0.855868"/>
<feComposite in2="hardAlpha" operator="arithmetic" k2="-1" k3="1"/>
<feColorMatrix type="matrix" values="0 0 0 0 0 0 0 0 0 0 0 0 0 0 0 0 0 0 0.25 0"/>
<feBlend mode="normal" in2="shape" result="effect2_innerShadow_1_702"/>
</filter>
</defs>
</svg>
